PathFileType	4	(X/Y/Z)	Apose_0-50.trc
DataRate	CameraRate	NumFrames	NumMarkers	Units	OrigDataRate	OrigDataStartFrame	OrigNumFrames
30	30	4	22	m	30	0	50
Frame#	Time	Hip			RHip			RKnee			RAnkle			RBigToe			RSmallToe			RHeel			LHip			LKnee			LAnkle			LBigToe			LSmallToe			LHeel			Neck			Head			Nose			RShoulder			RElbow			RWrist			LShoulder			LElbow			LWrist		
		X1	Y1	Z1	X2	Y2	Z2	X3	Y3	Z3	X4	Y4	Z4	X5	Y5	Z5	X6	Y6	Z6	X7	Y7	Z7	X8	Y8	Z8	X9	Y9	Z9	X10	Y10	Z10	X11	Y11	Z11	X12	Y12	Z12	X13	Y13	Z13	X14	Y14	Z14	X15	Y15	Z15	X16	Y16	Z16	X17	Y17	Z17	X18	Y18	Z18	X19	Y19	Z19	X20	Y20	Z20	X21	Y21	Z21	X22	Y22	Z22
1	0.03333333333333333	0.048842603607241346	0.9202681854839428	0.37049025072237046	0.04523343485917311	0.8804183347871155	0.47954344429709445	0.012363413734807462	0.51000489685319	0.4958888650118989	-0.003998215244515618	0.1129905621792835	0.5170071270712092	0.18886586983239273	0.048384560603724175	0.5645637780118259	0.1517691752828273	0.02358015635738083	0.6138536088473048	-0.04306889077069924	0.04271949201840559	0.49772641190460776	0.04917384028590448	0.8801091526734561	0.26409170028866163	0.02607446812272382	0.5086308101430054	0.23057019159779996	0.0019480722024282453	0.1231662976472819	0.20722259612603214	0.21342635282529557	0.04797841767298679	0.18624363793219476	0.17561310873034877	0.02943667291383099	0.13977783256838933	-0.038317888580454346	0.046650815493609665	0.2199849301936125	0.04456139515687482	1.578545713761888	0.3570868480858741	0.23875472854999477	1.8151510046306476	0.2597472508386284	0.20916459180096555	1.6435215711749986	0.3294550074859657	0.025757248979106733	1.48848025814633	0.5502329284411702	0.10872306489214632	1.2309190490791724	0.7307826717073576	0.17729693808434377	1.0373938875240543	0.8909395191179549	0.0004261550630011639	1.4792893354005152	0.16854964114240714	0.025725050731679164	1.2237737679323182	0.010738278499545636	0.08114696624370404	1.0186242674769055	-0.13393073030028907
2	0.06666666666666667	0.051496250479225986	0.9213049802824408	0.3704247268908235	0.04425684549113184	0.8788016663453104	0.47605211583698276	0.014961302942194292	0.5096218445515852	0.49671048806609136	-0.0039058403318847365	0.11114993968665988	0.5183589293310397	0.18897508257120707	0.03210714108307574	0.5527994082838835	0.14628295127276136	0.03392698679119973	0.6229737883423054	-0.041173640147101655	0.03696089452577071	0.4998006427936503	0.04612835238218085	0.879662981585261	0.2605151311968722	0.024707821726399678	0.5076277116047393	0.232359743883725	0.0028471151590783094	0.12091808992018463	0.20615022836051772	0.20938114102158842	0.03571399376009861	0.1939555234539844	0.1634928970835997	0.035006142745103025	0.1260850396687146	-0.04050208167121589	0.04234236575752401	0.21776327541382068	0.042690309433916294	1.5768722278686418	0.35754845427862963	0.16661808584976576	1.8026004586582982	0.3393005116411828	0.20997265003697613	1.6337554284353097	0.33460998820376175	0.0243685772978255	1.4848808208187056	0.5492482711187224	0.10487692186105652	1.2305140074973009	0.7263683935516604	0.16997235458664595	1.0393105165414893	0.8890948346872589	0.0031084582465594865	1.4759937315128338	0.1602382682026534	0.028262961382612833	1.2231216724107008	0.01496781548246635	0.08266527757998923	1.0143509255109415	-0.13718899264972131
3	0.1	0.041707061625315005	0.9219588497700494	0.36750209591120325	0.03278708579279016	0.8821783086418894	0.47280041919367044	0.012343378922534485	0.507038223252195	0.500390400721059	-0.005106809779496519	0.11310644807409542	0.5185889952798475	0.18142808392934628	0.032561787370186744	0.5549046193977063	0.1473965214276283	0.03556240332530941	0.6263150199770545	-0.039387314028454294	0.03978032937140947	0.4975669716396041	0.03616312579992197	0.8789963900157385	0.2548470815573516	0.020324003530909542	0.5087551615016149	0.23005472064319182	0.0073636870928091925	0.115101369176598	0.2084213814266742	0.2212952856820037	0.04784774801062285	0.18784475745112938	0.1646622406122009	0.03712444153623981	0.12556442762971284	-0.03668083275077554	0.04563252286525074	0.2179832255816251	0.06123736285905494	1.5928064146733192	0.361579444512756	0.3297540790569273	1.7785713900093432	0.2579004886449017	0.22742356000875658	1.5841132520514571	0.33115243033199876	0.02264981746093343	1.4879729206373848	0.5432985697175947	0.09041385305619484	1.2321977938222324	0.7252957418761206	0.14895506664692504	1.0418638750328881	0.8957651693048796	0.009045765934025701	1.4778878726607831	0.15464852968349058	0.016080163553987448	1.2263467701902013	0.006930377779049428	0.05565153753480337	1.012473739352995	-0.14640935137109923
4	0.13333333333333333	0.037549911484229384	0.9223032883958285	0.3642389113272942	0.029037226469600986	0.8820945050617153	0.4710628631256239	0.007488663375240649	0.506189178942005	0.49997061720063674	-0.0030030553136021704	0.10905206284214833	0.5162316722587864	0.2024430586021965	0.03951778692800004	0.5645442073024609	0.14833277152487281	0.03186679461909126	0.6278971904074457	-0.03745670023137511	0.03609271568437082	0.49603959247559437	0.031882022896880524	0.8838558130491312	0.25315123004475787	0.015386862249070528	0.5085689399272393	0.228958057366162	0.007960206303396375	0.11489006793867959	0.21064171564669165	0.21815671567730985	0.044772144389295006	0.18941684443857815	0.1669281728246046	0.03335391795773242	0.125299538906857	-0.043917612717552276	0.05598677231751748	0.20208646183379467	0.06587011968691184	1.5912652684886306	0.3647686311081775	0.322939114816684	1.7675948039879914	0.2679880304529615	0.2272597591870635	1.5737910517812166	0.3315337262201665	0.02705204192303875	1.4891482374897977	0.5439240172950032	0.08719046453583358	1.2330314461972638	0.7263030904264668	0.1372509781338606	1.0416815669428943	0.897479126019988	0.009854522997515734	1.4779810806450044	0.15545981671809414	0.012776315738319643	1.2284883684431704	0.00538483879902968	0.04925353754182445	1.0150308498332132	-0.1468115741622882
